<svg id='Dog_Poop_24' width='24' height='24' viewBox='0 0 24 24' xmlns='http://www.w3.org/2000/svg' xmlns:xlink='http://www.w3.org/1999/xlink'><rect width='24' height='24' stroke='none' fill='#000000' opacity='0'/>


<g transform="matrix(0.83 0 0 0.83 12 12)" >
<g style="" >
<g transform="matrix(1 0 0 1 0 2.51)" >
<path style="stroke: none; stroke-width: 1; stroke-dasharray: none; stroke-linecap: butt; stroke-dashoffset: 0; stroke-linejoin: miter; stroke-miterlimit: 4; fill: rgb(199,127,103); fill-rule: nonzero; opacity: 1;" transform=" translate(-12, -14.51)" d="M 21.5 20.5 C 21.5 21.163 21.2366 21.7989 20.7678 22.2678 C 20.2989 22.7366 19.663 23 19 23 L 5 23 C 4.33696 23 3.70107 22.7366 3.23223 22.2678 C 2.76339 21.7989 2.5 21.163 2.5 20.5 C 2.5 19.837 2.76339 19.2011 3.23223 18.7322 C 3.70107 18.2634 4.33696 18 5 18 C 4.33696 18 3.70107 17.7366 3.23223 17.2678 C 2.76339 16.7989 2.5 16.163 2.5 15.5 C 2.5 14.837 2.76339 14.2011 3.23223 13.7322 C 3.70107 13.2634 4.33696 13 5 13 L 7.59 13 C 7.31528 13.0009 7.04309 12.9475 6.7891 12.8428 C 6.53511 12.7381 6.30434 12.5842 6.11009 12.3899 C 5.91583 12.1956 5.76191 11.9649 5.65721 11.7109 C 5.5525 11.4569 5.49908 11.1847 5.5 10.91 C 5.5 6.95999 13.42 10.37 13.97 6.44999 C 13.9904 6.32398 14.057 6.2101 14.1569 6.13058 C 14.2567 6.05107 14.3826 6.01164 14.51 6.01999 C 17.34 6.29999 19.98 8.79999 17.55 13 L 19 13 C 19.663 13 20.2989 13.2634 20.7678 13.7322 C 21.2366 14.2011 21.5 14.837 21.5 15.5 C 21.5 16.163 21.2366 16.7989 20.7678 17.2678 C 20.2989 17.7366 19.663 18 19 18 C 19.663 18 20.2989 18.2634 20.7678 18.7322 C 21.2366 19.2011 21.5 19.837 21.5 20.5 L 21.5 20.5 Z" stroke-linecap="round" />
</g>
<g transform="matrix(1 0 0 1 0 -2.94)" >
<path style="stroke: none; stroke-width: 1; stroke-dasharray: none; stroke-linecap: butt; stroke-dashoffset: 0; stroke-linejoin: miter; stroke-miterlimit: 4; fill: rgb(227,191,179); fill-rule: nonzero; opacity: 1;" transform=" translate(-12, -9.06)" d="M 13.97 8.84299 C 13.9904 8.71698 14.057 8.6031 14.1569 8.52358 C 14.2567 8.44407 14.3826 8.40464 14.51 8.41299 C 15.3444 8.45209 16.1493 8.73336 16.8264 9.22243 C 17.5036 9.7115 18.0236 10.3872 18.323 11.167 C 19.14 8.07999 16.9 6.25599 14.51 6.01999 C 14.3826 6.01164 14.2567 6.05107 14.1569 6.13058 C 14.057 6.2101 13.9904 6.32398 13.97 6.44999 C 13.42 10.37 5.5 6.95999 5.5 10.91 C 5.49878 11.3392 5.63009 11.7582 5.876 12.11 C 7.446 10.123 13.492 12.252 13.97 8.84299 Z" stroke-linecap="round" />
</g>
<g transform="matrix(1 0 0 1 0 2.81)" >
<path style="stroke: none; stroke-width: 1; stroke-dasharray: none; stroke-linecap: butt; stroke-dashoffset: 0; stroke-linejoin: miter; stroke-miterlimit: 4; fill: rgb(227,191,179); fill-rule: nonzero; opacity: 1;" transform=" translate(-12, -14.81)" d="M 19 13 L 5 13 C 4.33696 13 3.70107 13.2634 3.23223 13.7322 C 2.76339 14.2011 2.5 14.837 2.5 15.5 C 2.50217 15.89 2.59712 16.2739 2.777 16.62 C 2.98322 16.2066 3.30034 15.8587 3.69291 15.6152 C 4.08548 15.3717 4.53803 15.2421 5 15.241 L 19 15.241 C 19.462 15.2421 19.9145 15.3717 20.3071 15.6152 C 20.6997 15.8587 21.0168 16.2066 21.223 16.62 C 21.4029 16.2739 21.4978 15.89 21.5 15.5 C 21.5 14.837 21.2366 14.2011 20.7678 13.7322 C 20.2989 13.2634 19.663 13 19 13 Z" stroke-linecap="round" />
</g>
<g transform="matrix(1 0 0 1 0 7.81)" >
<path style="stroke: none; stroke-width: 1; stroke-dasharray: none; stroke-linecap: butt; stroke-dashoffset: 0; stroke-linejoin: miter; stroke-miterlimit: 4; fill: rgb(227,191,179); fill-rule: nonzero; opacity: 1;" transform=" translate(-12, -19.81)" d="M 19 18 L 5 18 C 4.33696 18 3.70107 18.2634 3.23223 18.7322 C 2.76339 19.2011 2.5 19.837 2.5 20.5 C 2.50217 20.89 2.59712 21.2739 2.777 21.62 C 2.98322 21.2066 3.30034 20.8587 3.69291 20.6152 C 4.08548 20.3717 4.53803 20.2421 5 20.241 L 19 20.241 C 19.462 20.2421 19.9145 20.3717 20.3071 20.6152 C 20.6997 20.8587 21.0168 21.2066 21.223 21.62 C 21.4029 21.2739 21.4978 20.89 21.5 20.5 C 21.5 19.837 21.2366 19.2011 20.7678 18.7322 C 20.2989 18.2634 19.663 18 19 18 L 19 18 Z" stroke-linecap="round" />
</g>
<g transform="matrix(1 0 0 1 0 2.51)" >
<path style="stroke: rgb(25,25,25); stroke-width: 1; stroke-dasharray: none; stroke-linecap: round; stroke-dashoffset: 0; stroke-linejoin: round; stroke-miterlimit: 4; fill: none; fill-rule: nonzero; opacity: 1;" transform=" translate(-12, -14.51)" d="M 21.5 20.5 C 21.5 21.163 21.2366 21.7989 20.7678 22.2678 C 20.2989 22.7366 19.663 23 19 23 L 5 23 C 4.33696 23 3.70107 22.7366 3.23223 22.2678 C 2.76339 21.7989 2.5 21.163 2.5 20.5 C 2.5 19.837 2.76339 19.2011 3.23223 18.7322 C 3.70107 18.2634 4.33696 18 5 18 C 4.33696 18 3.70107 17.7366 3.23223 17.2678 C 2.76339 16.7989 2.5 16.163 2.5 15.5 C 2.5 14.837 2.76339 14.2011 3.23223 13.7322 C 3.70107 13.2634 4.33696 13 5 13 L 7.59 13 C 7.31528 13.0009 7.04309 12.9475 6.7891 12.8428 C 6.53511 12.7381 6.30434 12.5842 6.11009 12.3899 C 5.91583 12.1956 5.76191 11.9649 5.65721 11.7109 C 5.5525 11.4569 5.49908 11.1847 5.5 10.91 C 5.5 6.95999 13.42 10.37 13.97 6.44999 C 13.9904 6.32398 14.057 6.2101 14.1569 6.13058 C 14.2567 6.05107 14.3826 6.01164 14.51 6.01999 C 17.34 6.29999 19.98 8.79999 17.55 13 L 19 13 C 19.663 13 20.2989 13.2634 20.7678 13.7322 C 21.2366 14.2011 21.5 14.837 21.5 15.5 C 21.5 16.163 21.2366 16.7989 20.7678 17.2678 C 20.2989 17.7366 19.663 18 19 18 C 19.663 18 20.2989 18.2634 20.7678 18.7322 C 21.2366 19.2011 21.5 19.837 21.5 20.5 L 21.5 20.5 Z" stroke-linecap="round" />
</g>
<g transform="matrix(1 0 0 1 2.25 6)" >
<path style="stroke: rgb(25,25,25); stroke-width: 1; stroke-dasharray: none; stroke-linecap: round; stroke-dashoffset: 0; stroke-linejoin: round; stroke-miterlimit: 4; fill: none; fill-rule: nonzero; opacity: 1;" transform=" translate(-14.25, -18)" d="M 19 18 L 9.5 18" stroke-linecap="round" />
</g>
<g transform="matrix(1 0 0 1 -2.21 1)" >
<path style="stroke: rgb(25,25,25); stroke-width: 1; stroke-dasharray: none; stroke-linecap: round; stroke-dashoffset: 0; stroke-linejoin: round; stroke-miterlimit: 4; fill: none; fill-rule: nonzero; opacity: 1;" transform=" translate(-9.79, -13)" d="M 12 13 L 7.59 13" stroke-linecap="round" />
</g>
<g transform="matrix(1 0 0 1 5.53 1)" >
<path style="stroke: rgb(25,25,25); stroke-width: 1; stroke-dasharray: none; stroke-linecap: round; stroke-dashoffset: 0; stroke-linejoin: round; stroke-miterlimit: 4; fill: none; fill-rule: nonzero; opacity: 1;" transform=" translate(-17.52, -13)" d="M 17.55 13 L 17.5 13" stroke-linecap="round" />
</g>
<g transform="matrix(1 0 0 1 -7.5 -8.25)" >
<path style="stroke: rgb(25,25,25); stroke-width: 1; stroke-dasharray: none; stroke-linecap: round; stroke-dashoffset: 0; stroke-linejoin: round; stroke-miterlimit: 4; fill: none; fill-rule: nonzero; opacity: 1;" transform=" translate(-4.5, -3.75)" d="M 3 3 L 4.5 4.5 L 6 3" stroke-linecap="round" />
</g>
<g transform="matrix(1 0 0 1 7 -10.25)" >
<path style="stroke: rgb(25,25,25); stroke-width: 1; stroke-dasharray: none; stroke-linecap: round; stroke-dashoffset: 0; stroke-linejoin: round; stroke-miterlimit: 4; fill: none; fill-rule: nonzero; opacity: 1;" transform=" translate(-19, -1.75)" d="M 17.5 1 L 19 2.5 L 20.5 1" stroke-linecap="round" />
</g>
</g>
</g>
</svg>